<?xml version="1.0" encoding="UTF-8"?><svg xmlns="http://www.w3.org/2000/svg" viewBox="0 0 158 35" width="158" height="35"><path d="m89.66,34.63h-6v-15.25h-4v15.25h-6V.43h6v14.2h4V.43h6v34.2Zm22,0h-5.7l-.6-3.85h-5l-.65,3.85h-5.7L102.25.43h1.2l8.2,34.2Zm-7.1-7.3l-1.7-10-1.7,10h3.4ZM136.1.43l-7.85,34.2h-1.15l-3.3-14-3.35,14h-1.15L111.5.43h6.4l3.1,18,2.8-13.35,2.75,13.35,3.15-18h6.4Zm21.65,34.2h-6.45l-4.95-15.6v15.6h-6V.43h6v13.85l4.35-13.85h6.5l-5.85,16.25,6.4,17.95ZM48,13.41s1.79,1.44,1.86,1.5c1.65,1.18,3.21,2.47,4.62,3.93,1.06,1.13,2,2.36,2.77,3.7.42.79.77,1.63,1,2.5.16.71.23,1.43.23,2.15-.04.86-.19,1.7-.43,2.53-.42,1.32-1.04,2.57-1.76,3.75,0-.01.02-.03.03-.04-.25.41-.52.81-.8,1.21,0,0,0,0,0,0,1.26-.81,2.43-1.78,3.39-2.94,1.29-1.57,2.22-3.55,2.31-5.6.02-.55.03-1.1-.04-1.64-.07-.55-.2-1.1-.35-1.64-.28-.97-.74-1.89-1.31-2.73-1.2-1.79-2.9-3.19-4.73-4.29-1.85-1.11-6.8-2.38-6.8-2.38Zm8.32,20.01h0s0-.01.01-.02c0,0,0,.01-.01.02h0Zm-19.02-10.72h0s0,0,0,0c0,0,0,0,0,0,.32.54.72,1.05,1.17,1.49,1.05,1.03,2.35,1.72,3.71,2.23,1.33.5,2.73.8,4.13,1,1.47.21,2.96.3,4.43.47,1.24.16,2.48.38,3.64.84.67.27,1.31.62,1.89,1.05,0,0,0,0-.01,0,.07.05.14.11.22.16,0,0,0,0,0,0-.33-.61-.76-1.18-1.25-1.66-1.03-1.01-2.32-1.69-3.66-2.19-1.32-.49-2.72-.78-4.11-.98-1.46-.21-2.94-.29-4.41-.46-1.29-.16-2.58-.4-3.8-.88-.69-.28-1.34-.63-1.95-1.07h0Zm5.81,1.95h0s.05,0,.07,0c0,0-.01,0-.02,0-.02,0-.03,0-.05,0h0ZM22.64.38h0c-.41,0-.81-.01-1.22-.01-3.09,0-6.17.21-9.25.44-3.1.23-6.22.5-9.33.41-.86-.03-1.73-.08-2.59-.18,0,0,0,0,0,0,1.79.85,3.71,1.42,5.64,1.87,3.25.76,6.57,1.16,9.89,1.49,3.5.35,7,.63,10.5.97,3.2.31,6.43.69,9.52,1.6,1.64.51,3.23,1.18,4.71,2.07,1.16.73,2.23,1.59,3.18,2.57,1.09,1.16,2.01,2.45,2.78,3.84,0-.01-.01-.02-.02-.03.15.28.3.56.44.84,0,0,0,0,0,0-.02-.11-.03-.22-.05-.33-.27-1.69-.77-3.35-1.54-4.88-.38-.76-.82-1.49-1.32-2.18-.51-.7-1.08-1.34-1.69-1.95-1.19-1.19-2.56-2.16-4.02-2.98-1.39-.79-2.87-1.4-4.4-1.88-1.78-.56-3.58-.99-5.43-1.27-1.93-.28-3.86-.38-5.81-.42h0Z" fill="#fff" stroke-width="0"/></svg>
