<svg xmlns="http://www.w3.org/2000/svg" width="127" height="50" viewBox="0 0 127 50"><path d="m54.96,19.32c1.08,0,2.04.16,2.85.49.82.33,1.5.76,2.04,1.3.54.54.95,1.16,1.22,1.85.27.69.41,1.4.41,2.13s-.14,1.46-.41,2.15c-.27.69-.68,1.31-1.22,1.85s-1.22.98-2.04,1.31c-.82.33-1.77.49-2.85.49h-2.43v6.22h-3.3v-17.81h5.74Zm-2.43,8.72h2.32c.55,0,1.03-.08,1.45-.24s.77-.38,1.04-.65c.27-.27.48-.59.62-.94s.21-.72.21-1.1-.07-.72-.21-1.07c-.14-.35-.35-.66-.62-.93-.27-.27-.62-.49-1.04-.65s-.9-.24-1.45-.24h-2.32v5.83Zm20.72,9.09h-2.11l-.42-1.61c-.43.53-.95.97-1.57,1.33-.62.36-1.32.54-2.12.54-.63,0-1.22-.1-1.75-.31-.53-.21-.99-.49-1.37-.85-.38-.36-.68-.78-.89-1.27s-.32-1-.32-1.55c0-.72.15-1.37.46-1.94.31-.57.73-1.06,1.26-1.46.53-.4,1.16-.7,1.87-.91.71-.21,1.49-.31,2.31-.31.23,0,.48,0,.77.02.28.02.54.04.78.07v-.22c0-.38-.07-.71-.21-.98-.14-.27-.33-.5-.56-.68s-.51-.32-.83-.4c-.32-.08-.66-.13-1.02-.13-.57,0-1.09.07-1.57.22-.48.14-.93.33-1.36.57l-1.19-2.09c.64-.45,1.36-.8,2.16-1.05.79-.25,1.59-.37,2.4-.37.72,0,1.4.11,2.04.31.64.21,1.2.53,1.68.97.48.44.87.99,1.15,1.65.29.67.43,1.46.43,2.37v8.09Zm-3.11-6.14c-.15-.03-.31-.06-.49-.07-.18-.02-.33-.02-.46-.02-.57,0-1.06.06-1.48.18-.42.12-.77.27-1.05.47s-.49.42-.63.69c-.14.26-.21.54-.21.83,0,.21.04.42.13.61s.2.37.35.52.33.27.55.35.45.13.71.13.5-.04.75-.12c.25-.08.49-.19.73-.34.23-.14.44-.32.63-.52.19-.2.35-.43.48-.68v-2.01Zm9.12-11.67v13.89c0,.47.1.81.29,1.02s.54.33,1.05.39l-.37,2.67c-.73,0-1.35-.07-1.87-.21s-.94-.35-1.26-.64c-.33-.29-.57-.64-.72-1.06s-.22-.91-.22-1.47v-14.6h3.11Zm8.88,4.4c.69,0,1.36.12,2.02.35.66.24,1.25.61,1.78,1.12.53.51.95,1.16,1.27,1.96s.48,1.75.48,2.87c0,.19-.01.42-.03.67-.02.25-.04.46-.06.64h-7.94c.03.54.14,1.01.32,1.43s.42.77.71,1.05.62.49,1,.64c.38.14.77.22,1.18.22.45,0,.91-.09,1.38-.27.47-.18.91-.45,1.31-.83l1.64,2.11c-.75.6-1.53,1.04-2.34,1.3-.81.27-1.61.4-2.41.4s-1.61-.16-2.34-.48-1.37-.78-1.92-1.38c-.55-.6-.98-1.34-1.3-2.21-.32-.88-.48-1.87-.48-2.99,0-1.02.15-1.94.45-2.76s.71-1.51,1.23-2.08c.52-.57,1.13-1.01,1.82-1.31.69-.31,1.44-.46,2.23-.46Zm.06,2.72c-.34,0-.66.07-.94.21-.29.14-.54.33-.76.57-.22.24-.4.53-.54.87-.14.34-.23.7-.26,1.09h4.93v-.18c-.01-.39-.08-.74-.21-1.06-.13-.32-.3-.58-.52-.81-.22-.22-.48-.39-.77-.52-.3-.12-.6-.19-.93-.19Zm11.73-5.46v3h3.21v2.72h-3.16v6.11c0,.61.12,1.07.37,1.39.25.31.6.47,1.05.47.2,0,.42-.04.66-.14.24-.09.48-.23.73-.43l1.18,2.06c-.52.41-1.08.71-1.68.92-.6.2-1.19.31-1.77.31-.48,0-.95-.08-1.38-.23-.44-.16-.83-.39-1.16-.71-.33-.32-.6-.71-.8-1.19-.2-.48-.3-1.04-.3-1.7v-6.85h-1.77v-2.72h1.82v-2.18l3.01-.82Zm9.86,0v3h3.21v2.72h-3.16v6.11c0,.61.12,1.07.37,1.39.25.31.6.47,1.05.47.2,0,.42-.04.66-.14.24-.09.48-.23.73-.43l1.18,2.06c-.52.41-1.08.71-1.68.92-.6.2-1.19.31-1.77.31-.48,0-.95-.08-1.38-.23-.44-.16-.83-.39-1.16-.71-.33-.32-.6-.71-.8-1.19-.2-.48-.3-1.04-.3-1.7v-6.85h-1.77v-2.72h1.82v-2.18l3.01-.82Zm10.97,2.74c.69,0,1.36.12,2.02.35.66.24,1.25.61,1.78,1.12.53.51.95,1.16,1.27,1.96s.48,1.75.48,2.87c0,.19-.01.42-.03.67-.02.25-.04.46-.06.64h-7.94c.03.54.14,1.01.32,1.43s.42.77.71,1.05.62.49,1,.64c.38.14.77.22,1.18.22.45,0,.91-.09,1.38-.27.47-.18.91-.45,1.31-.83l1.64,2.11c-.75.6-1.53,1.04-2.34,1.3-.81.27-1.61.4-2.41.4s-1.61-.16-2.34-.48-1.37-.78-1.92-1.38c-.55-.6-.98-1.34-1.3-2.21-.32-.88-.48-1.87-.48-2.99,0-1.02.15-1.94.45-2.76s.71-1.51,1.23-2.08c.52-.57,1.13-1.01,1.82-1.31.69-.31,1.44-.46,2.23-.46Zm.06,2.72c-.34,0-.66.07-.94.21-.29.14-.54.33-.76.57-.22.24-.4.53-.54.87-.14.34-.23.7-.26,1.09h4.93v-.18c-.01-.39-.08-.74-.21-1.06-.13-.32-.3-.58-.52-.81-.22-.22-.48-.39-.77-.52-.3-.12-.6-.19-.93-.19Z"/><path d="m51.5,12.75c-8.11-3.29-18.15-4.11-18.15-4.11,0,0-.23-2.58.53-7.52-.94,2.06-2.7,6.46-3,9.75,7.28.59,12.28,2.23,12.28,2.23,0,0-7.4,2.82-11.51,6.05.76,1.82,2.41,7.11,3.35,11.22-1.59-1.47-6.4-5.4-9.81-7.46-4.58,1.7-17.33,14.33-24.5,25.96,3.11-3.23,12.16-13.45,24.44-20.85,2.53,1.47,14.22,9.1,14.22,9.1,0,0-2.58-13.63-3.52-16.68,3.7-2.53,9.87-5.93,15.68-7.7" fill="#49da7f"/></svg>
